<svg xmlns="http://www.w3.org/2000/svg" width="1600" height="900" viewBox="0 0 1600 900">
<rect width="1600" height="900" fill="#071019"/>
<text x="80" y="78" fill="#f5fbff" font-family="Arial" font-size="42" font-weight="700">User Flow · Felhasználói folyamat</text>
<g font-family="Arial">
<g transform="translate(100 210)"><circle cx="100" cy="100" r="88" fill="#0b1b28" stroke="#14d9ff" stroke-width="3"/><text x="100" y="90" text-anchor="middle" fill="#14d9ff" font-size="18" font-weight="700">1</text><text x="100" y="122" text-anchor="middle" fill="#ffffff" font-size="18" font-weight="700">Salvage ship</text></g><g transform="translate(390 210)"><circle cx="100" cy="100" r="88" fill="#0b1b28" stroke="#14d9ff" stroke-width="3"/><text x="100" y="90" text-anchor="middle" fill="#14d9ff" font-size="18" font-weight="700">2</text><text x="100" y="122" text-anchor="middle" fill="#ffffff" font-size="18" font-weight="700">Raw SCU</text></g><g transform="translate(680 210)"><circle cx="100" cy="100" r="88" fill="#0b1b28" stroke="#14d9ff" stroke-width="3"/><text x="100" y="90" text-anchor="middle" fill="#14d9ff" font-size="18" font-weight="700">3</text><text x="100" y="122" text-anchor="middle" fill="#ffffff" font-size="18" font-weight="700">Mode + method</text></g><g transform="translate(970 210)"><circle cx="100" cy="100" r="88" fill="#0b1b28" stroke="#14d9ff" stroke-width="3"/><text x="100" y="90" text-anchor="middle" fill="#14d9ff" font-size="18" font-weight="700">4</text><text x="100" y="122" text-anchor="middle" fill="#ffffff" font-size="18" font-weight="700">Top 3 / All</text></g><g transform="translate(1260 210)"><circle cx="100" cy="100" r="88" fill="#0b1b28" stroke="#14d9ff" stroke-width="3"/><text x="100" y="90" text-anchor="middle" fill="#14d9ff" font-size="18" font-weight="700">5</text><text x="100" y="122" text-anchor="middle" fill="#ffffff" font-size="18" font-weight="700">UEX demand</text></g>
<path d="M290 310 H390 M580 310 H680 M870 310 H970 M1160 310 H1260" stroke="#14d9ff" stroke-width="4"/>
<g transform="translate(130 500)"><rect width="1340" height="240" rx="24" fill="#0c1b27" stroke="#253b48"/>
<text x="42" y="52" fill="#ffffff" font-size="24" font-weight="700">What the app decides · Amit az alkalmazás eldönt</text>
<text x="42" y="98" fill="#c8e0e8" font-size="19">• Ship → structural salvage material resolver</text>
<text x="42" y="132" fill="#c8e0e8" font-size="19">• Material → recovery model + explicit refinery bonus isolation</text>
<text x="42" y="166" fill="#c8e0e8" font-size="19">• Ship size/access → verified location compatibility rules</text>
<text x="42" y="200" fill="#c8e0e8" font-size="19">• Result location → direct UEX commodity + terminal demand link</text>
</g>
</g></svg>